<svg width="208" height="208" viewBox="0 0 208 208" fill="none" xmlns="http://www.w3.org/2000/svg">
<path d="M208 104C208 161.438 161.438 208 104 208C46.5624 208 0 161.438 0 104C0 46.5624 46.5624 0 104 0C161.438 0 208 46.5624 208 104Z" fill="#1E2019"/>
<path d="M205 104C205 159.781 159.781 205 104 205C48.2192 205 3 159.781 3 104C3 48.2192 48.2192 3 104 3C159.781 3 205 48.2192 205 104Z" fill="#D3D0CB"/>
<path d="M68.2381 110C67.6741 110 67.2721 109.856 67.0321 109.568C66.7921 109.28 66.6421 108.92 66.5821 108.488H66.4921C66.2881 109.028 65.9581 109.454 65.5021 109.766C65.0581 110.066 64.4581 110.216 63.7021 110.216C62.7301 110.216 61.9561 109.964 61.3801 109.46C60.8041 108.956 60.5161 108.266 60.5161 107.39C60.5161 106.526 60.8281 105.86 61.4521 105.392C62.0881 104.924 63.1081 104.69 64.5121 104.69H66.4921V103.772C66.4921 103.088 66.3001 102.578 65.9161 102.242C65.5321 101.894 64.9861 101.72 64.2781 101.72C63.6541 101.72 63.1441 101.846 62.7481 102.098C62.3521 102.338 62.0341 102.668 61.7941 103.088L60.8221 102.368C60.9421 102.128 61.1041 101.894 61.3081 101.666C61.5121 101.438 61.7641 101.24 62.0641 101.072C62.3641 100.892 62.7061 100.754 63.0901 100.658C63.4741 100.55 63.9001 100.496 64.3681 100.496C65.4601 100.496 66.3241 100.772 66.9601 101.324C67.6081 101.876 67.9321 102.644 67.9321 103.628V108.74H69.2281V110H68.2381ZM63.9541 109.01C64.3261 109.01 64.6621 108.968 64.9621 108.884C65.2741 108.788 65.5441 108.668 65.7721 108.524C66.0001 108.368 66.1741 108.188 66.2941 107.984C66.4261 107.768 66.4921 107.54 66.4921 107.3V105.77H64.5121C63.6481 105.77 63.0181 105.89 62.6221 106.13C62.2261 106.37 62.0281 106.718 62.0281 107.174V107.552C62.0281 108.032 62.1961 108.398 62.5321 108.65C62.8801 108.89 63.3541 109.01 63.9541 109.01Z" fill="#1E2019"/>
<path d="M71.5071 108.776H74.2251V101.936H71.5071V100.712H75.6651V103.052H75.7551C75.9471 102.32 76.3071 101.75 76.8351 101.342C77.3751 100.922 78.0591 100.712 78.8871 100.712H80.1831V102.152H78.4371C77.6091 102.152 76.9371 102.392 76.4211 102.872C75.9171 103.352 75.6651 103.982 75.6651 104.762V108.776H79.2651V110H71.5071V108.776Z" fill="#1E2019"/>
<path d="M86.7641 110C86.0561 110 85.5341 109.802 85.1981 109.406C84.8741 109.01 84.7121 108.5 84.7121 107.876V101.936H81.6161V100.712H83.9201C84.2321 100.712 84.4481 100.652 84.5681 100.532C84.7001 100.4 84.7661 100.178 84.7661 99.866V97.436H86.1521V100.712H90.3821V101.936H86.1521V108.776H90.3821V110H86.7641Z" fill="#1E2019"/>
<path d="M104.264 96.68H105.704V102.224H105.776C105.872 101.996 105.992 101.78 106.136 101.576C106.28 101.36 106.454 101.174 106.658 101.018C106.874 100.862 107.126 100.736 107.414 100.64C107.702 100.544 108.038 100.496 108.422 100.496C109.394 100.496 110.174 100.808 110.762 101.432C111.35 102.044 111.644 102.914 111.644 104.042V110H110.204V104.294C110.204 103.442 110.018 102.812 109.646 102.404C109.274 101.984 108.728 101.774 108.008 101.774C107.72 101.774 107.438 101.81 107.162 101.882C106.886 101.954 106.64 102.062 106.424 102.206C106.208 102.35 106.034 102.536 105.902 102.764C105.77 102.992 105.704 103.256 105.704 103.556V110H104.264V96.68Z" fill="#1E2019"/>
<path d="M118.855 110.216C118.183 110.216 117.577 110.102 117.037 109.874C116.509 109.646 116.053 109.322 115.669 108.902C115.297 108.47 115.009 107.96 114.805 107.372C114.601 106.772 114.499 106.106 114.499 105.374C114.499 104.63 114.601 103.958 114.805 103.358C115.021 102.758 115.315 102.248 115.687 101.828C116.059 101.396 116.503 101.066 117.019 100.838C117.547 100.61 118.129 100.496 118.765 100.496C119.389 100.496 119.953 100.61 120.457 100.838C120.973 101.066 121.411 101.384 121.771 101.792C122.131 102.188 122.407 102.662 122.599 103.214C122.791 103.766 122.887 104.372 122.887 105.032V105.716H116.011V106.148C116.011 106.556 116.077 106.934 116.209 107.282C116.341 107.63 116.527 107.93 116.767 108.182C117.019 108.434 117.319 108.632 117.667 108.776C118.027 108.908 118.423 108.974 118.855 108.974C119.479 108.974 120.019 108.83 120.475 108.542C120.931 108.254 121.279 107.858 121.519 107.354L122.581 108.074C122.305 108.698 121.843 109.214 121.195 109.622C120.559 110.018 119.779 110.216 118.855 110.216ZM118.765 101.684C118.369 101.684 118.003 101.756 117.667 101.9C117.331 102.044 117.037 102.242 116.785 102.494C116.545 102.746 116.353 103.046 116.209 103.394C116.077 103.73 116.011 104.102 116.011 104.51V104.636H121.339V104.438C121.339 104.03 121.273 103.658 121.141 103.322C121.021 102.986 120.847 102.698 120.619 102.458C120.403 102.206 120.133 102.014 119.809 101.882C119.497 101.75 119.149 101.684 118.765 101.684Z" fill="#1E2019"/>
<path d="M125.472 108.776H128.19V101.936H125.472V100.712H129.63V103.052H129.72C129.912 102.32 130.272 101.75 130.8 101.342C131.34 100.922 132.024 100.712 132.852 100.712H134.148V102.152H132.402C131.574 102.152 130.902 102.392 130.386 102.872C129.882 103.352 129.63 103.982 129.63 104.762V108.776H133.23V110H125.472V108.776Z" fill="#1E2019"/>
<path d="M140.441 110.216C139.769 110.216 139.163 110.102 138.623 109.874C138.095 109.646 137.639 109.322 137.255 108.902C136.883 108.47 136.595 107.96 136.391 107.372C136.187 106.772 136.085 106.106 136.085 105.374C136.085 104.63 136.187 103.958 136.391 103.358C136.607 102.758 136.901 102.248 137.273 101.828C137.645 101.396 138.089 101.066 138.605 100.838C139.133 100.61 139.715 100.496 140.351 100.496C140.975 100.496 141.539 100.61 142.043 100.838C142.559 101.066 142.997 101.384 143.357 101.792C143.717 102.188 143.993 102.662 144.185 103.214C144.377 103.766 144.473 104.372 144.473 105.032V105.716H137.597V106.148C137.597 106.556 137.663 106.934 137.795 107.282C137.927 107.63 138.113 107.93 138.353 108.182C138.605 108.434 138.905 108.632 139.253 108.776C139.613 108.908 140.009 108.974 140.441 108.974C141.065 108.974 141.605 108.83 142.061 108.542C142.517 108.254 142.865 107.858 143.105 107.354L144.167 108.074C143.891 108.698 143.429 109.214 142.781 109.622C142.145 110.018 141.365 110.216 140.441 110.216ZM140.351 101.684C139.955 101.684 139.589 101.756 139.253 101.9C138.917 102.044 138.623 102.242 138.371 102.494C138.131 102.746 137.939 103.046 137.795 103.394C137.663 103.73 137.597 104.102 137.597 104.51V104.636H142.925V104.438C142.925 104.03 142.859 103.658 142.727 103.322C142.607 102.986 142.433 102.698 142.205 102.458C141.989 102.206 141.719 102.014 141.395 101.882C141.083 101.75 140.735 101.684 140.351 101.684Z" fill="#1E2019"/>
</svg>
