<svg width="107" height="201" viewBox="0 0 107 201" fill="none" xmlns="http://www.w3.org/2000/svg">
<path d="M5 25C5 22.2386 7.23858 20 10 20H97C99.7614 20 102 22.2386 102 25V191C102 193.761 99.7614 196 97 196H10C7.23858 196 5 193.761 5 191V25Z" fill="#F5F5F5"/>
<path d="M95.4172 13.4H78.5625C75.8011 13.4 73.5625 11.1614 73.5625 8.4V5C73.5625 2.23858 71.3239 0 68.5625 0H38.4375C35.6761 0 33.4375 2.23858 33.4375 5V8.4C33.4375 11.1614 31.1989 13.4 28.4375 13.4H11.5828C5.19619 13.4 0 18.6059 0 25.0044V189.396C0 195.794 5.19619 201 11.5828 201H95.4139C101.804 201 107 195.794 107 189.396V25.0044C107 18.6059 101.804 13.4 95.4172 13.4ZM100.312 189.396C100.312 192.102 98.1156 194.3 95.4172 194.3H11.5828C8.88435 194.3 6.6875 192.102 6.6875 189.396V25.0044C6.6875 22.2976 8.88435 20.1 11.5828 20.1H95.4172C98.1156 20.1 100.312 22.2976 100.312 25.0044V189.396Z" fill="#1E2019"/>
<path d="M43.8161 131.666L42.5383 158.328C42.4888 159.36 43.8469 159.677 44.3897 158.76L58.1904 135.452C72.2227 137.81 76.7461 132.431 77.7586 130.832C77.8143 130.744 77.8688 130.654 77.9235 130.564C78.0426 130.367 78.1626 130.169 78.2977 129.987C85.723 119.953 94 129.7 94 130.4V183.69C94 186.452 91.7614 188.69 89 188.69H17C14.2386 188.69 12 186.452 12 183.69V129.308C12 128.824 12.0556 128.334 12.2522 127.892C14.6591 122.483 24.4092 125.56 37.8409 129.799C39.761 130.405 41.7563 131.034 43.8161 131.666Z" fill="#DFDEFF"/>
<path d="M62.1206 99.7604C61.5685 99.7754 61.1424 99.3404 61.1688 98.7887L63.0929 58.6435C63.1424 57.6116 61.7843 57.2946 61.2415 58.2113L25.8898 117.917C25.4897 118.593 25.9325 119.396 26.6937 119.376L42.3317 118.951C42.8838 118.936 43.3099 119.371 43.2835 119.923L41.3594 160.068C41.3099 161.1 42.668 161.417 43.2108 160.5L78.5625 100.794C78.9626 100.118 78.5198 99.315 77.7586 99.3356L62.1206 99.7604Z" fill="#E2C044"/>
</svg>
