<svg width="530" height="530" viewBox="0 0 530 530" fill="none" xmlns="http://www.w3.org/2000/svg">
<path d="M530 265C530 411.355 411.355 530 265 530C118.645 530 0 411.355 0 265C0 118.645 118.645 0 265 0C411.355 0 530 118.645 530 265Z" fill="#191919" fill-opacity="0.9"/>
<path d="M505 266C505 398.548 397.548 506 265 506C132.452 506 25 398.548 25 266C25 133.452 132.452 26 265 26C397.548 26 505 133.452 505 266Z" fill="#7270FF"/>
<path d="M299.498 232.011L307.264 70.3672L169.482 302.512L235.467 300.724L227.701 462.367L365.482 230.223L299.498 232.011Z" fill="#DFB92F"/>
</svg>
