<svg width="299" height="299" viewBox="0 0 299 299" fill="none" xmlns="http://www.w3.org/2000/svg">
<path d="M148.119 294.74C67.6538 294.225 2.84183 228.577 3.35715 148.112C3.87247 67.6474 69.52 2.83535 149.985 3.35067C230.45 3.86599 295.262 69.5135 294.747 149.979C294.231 230.444 228.584 295.256 148.119 294.74Z" fill="#7270FF"/>
<path fill-rule="evenodd" clip-rule="evenodd" d="M150.006 0.00307869C115.524 -0.218468 82.031 11.5232 55.2352 33.2275C28.4394 54.9318 9.99817 85.2557 3.05384 119.032C-3.8905 152.809 1.09168 187.949 17.1515 218.464C33.2112 248.979 59.3549 272.982 91.128 286.382C122.901 299.782 158.337 301.751 191.399 291.953C224.461 282.155 253.103 261.196 272.444 232.648C291.786 204.099 300.63 169.728 297.47 135.39C294.31 101.052 279.341 68.8716 255.115 44.3325C241.379 30.3835 225.022 19.2863 206.984 11.6788C188.946 4.07128 169.582 0.103362 150.006 0.00307869ZM49.0412 47.746C72.4774 24.6077 103.211 10.3114 136.007 7.29311C168.802 4.2748 201.629 12.7212 228.895 31.1931C256.161 49.665 276.178 77.0195 285.537 108.596C294.895 140.172 293.015 174.016 280.217 204.362C267.42 234.707 244.496 259.677 215.352 275.015C186.208 290.354 152.647 295.113 120.388 288.481C88.129 281.85 59.1673 264.237 38.4377 238.646C17.7082 213.055 6.49341 181.067 6.70431 148.134C6.79986 129.437 10.5893 110.943 17.8549 93.7151C25.1204 76.4872 35.7189 60.8649 49.0412 47.746Z" fill="#231F20"/>
<path fill-rule="evenodd" clip-rule="evenodd" d="M149.863 52.0361L149.486 52.0337C143.294 51.9943 137.34 54.416 132.934 58.766C128.528 63.1161 126.031 69.0382 125.991 75.2297C125.986 75.99 126.017 76.7409 126.084 77.4822C124.623 74.6393 122.594 72.1267 120.122 70.1C117.65 68.0733 114.789 66.5758 111.715 65.7002C108.641 64.8245 105.419 64.5894 102.251 65.0095C99.0821 65.4295 96.0335 66.4957 93.2936 68.1421C90.5538 69.7884 88.1813 71.9798 86.3229 74.5804C84.4646 77.1811 83.16 80.1357 82.4901 83.2611C81.8202 86.3865 81.7992 89.6161 82.4283 92.75C83.0575 95.8839 84.3235 98.8552 86.1478 101.48C83.2762 100.132 80.1601 99.3844 76.9898 99.2812C73.8195 99.1779 70.6613 99.7217 67.7081 100.879C64.7549 102.037 62.0685 103.784 59.8128 106.014C57.5571 108.244 55.7795 110.911 54.5884 113.851C53.3972 116.791 52.8176 119.942 52.8847 123.114C52.9519 126.285 53.6645 129.409 54.9791 132.296C56.2936 135.183 58.1825 137.772 60.5306 139.904C62.8787 142.037 65.6367 143.669 68.6363 144.7C65.3697 144.863 62.1738 145.71 59.2556 147.186C56.3373 148.663 53.7619 150.736 51.6962 153.272C49.6305 155.808 48.1206 158.749 47.2643 161.906C46.4081 165.062 46.2246 168.363 46.7258 171.595C47.227 174.827 48.4016 177.918 50.1736 180.667C51.9456 183.416 54.2754 185.762 57.0121 187.553C59.7487 189.344 62.8311 190.54 66.0595 191.063C69.2879 191.587 72.5903 191.426 75.7526 190.591C72.9095 192.629 70.5604 195.279 68.879 198.345C67.1975 201.412 66.2266 204.818 66.0379 208.31C65.8493 211.803 66.4478 215.293 67.7892 218.523C69.1306 221.753 71.1806 224.641 73.7878 226.972C76.3949 229.304 79.4926 231.02 82.852 231.993C86.2113 232.967 89.7465 233.173 93.1963 232.597C96.6462 232.021 99.9224 230.677 102.783 228.665C105.644 226.652 108.016 224.023 109.724 220.971C121.457 228.013 134.861 231.789 148.546 231.906C162.23 232.023 175.696 228.477 187.549 221.637C189.238 224.69 191.591 227.326 194.434 229.35C197.277 231.374 200.537 232.735 203.976 233.333C207.414 233.931 210.942 233.75 214.301 232.805C217.661 231.859 220.765 230.172 223.387 227.869C226.008 225.565 228.08 222.703 229.449 219.494C230.819 216.284 231.452 212.808 231.301 209.321C231.15 205.835 230.219 202.426 228.577 199.347C226.936 196.268 224.624 193.595 221.814 191.527C224.966 192.404 228.267 192.608 231.503 192.127C234.74 191.646 237.839 190.491 240.6 188.735C243.36 186.979 245.721 184.663 247.53 181.936C249.338 179.209 250.553 176.133 251.095 172.906C251.638 169.68 251.497 166.375 250.68 163.207C249.864 160.039 248.39 157.077 246.356 154.515C244.321 151.953 241.771 149.847 238.87 148.333C235.969 146.82 232.783 145.933 229.517 145.731C232.529 144.737 235.308 143.141 237.683 141.039C240.058 138.936 241.98 136.372 243.331 133.503C244.682 130.633 245.435 127.518 245.543 124.348C245.65 121.178 245.111 118.02 243.958 115.065C242.805 112.11 241.062 109.421 238.835 107.162C236.608 104.904 233.945 103.122 231.007 101.927C228.069 100.731 224.918 100.147 221.747 100.209C218.576 100.272 215.451 100.979 212.562 102.289C214.42 99.6883 215.724 96.7335 216.393 93.608C217.062 90.4824 217.083 87.2527 216.453 84.119C215.823 80.9853 214.556 78.0142 212.731 75.39C210.906 72.7657 208.562 70.5441 205.844 68.8629C203.125 67.1816 200.09 66.0764 196.927 65.6158C193.764 65.1552 190.54 65.349 187.455 66.1852C184.37 67.0214 181.49 68.4822 178.992 70.477C176.495 72.4719 174.433 74.9583 172.936 77.7823C173.012 77.0416 173.053 76.2912 173.059 75.5311C173.098 69.3397 170.676 63.3861 166.326 58.98C161.976 54.5739 156.054 52.0761 149.863 52.0361Z" fill="#554846"/>
<path fill-rule="evenodd" clip-rule="evenodd" d="M149.884 48.6885L149.507 48.6861C146.002 48.6605 142.528 49.3275 139.282 50.6488C136.036 51.9702 133.083 53.9198 130.593 56.3856L130.581 56.398C127.163 59.7671 124.718 63.9957 123.502 68.6383C118.472 63.9372 111.818 61.3655 104.934 61.4624C98.0497 61.5593 91.4704 64.3172 86.5748 69.158L86.5624 69.1703C83.0839 72.6042 80.6151 76.9272 79.4251 81.668C78.2351 86.4088 78.3697 91.3853 79.8142 96.0548L79.8493 96.1699C75.799 95.614 71.6751 95.9968 67.7963 97.2887C63.9176 98.5806 60.3878 100.747 57.4798 103.621L57.4673 103.633C54.7927 106.275 52.7067 109.452 51.346 112.957C49.9852 116.461 49.3805 120.214 49.5713 123.968C49.7622 127.723 50.7444 131.395 52.4536 134.743C54.1628 138.092 56.5603 141.041 59.489 143.398C55.4587 145.08 51.9028 147.725 49.1337 151.102C46.3647 154.479 44.4672 158.484 43.6078 162.765C42.7485 167.047 42.9536 171.474 44.2051 175.658C45.4566 179.842 47.7163 183.654 50.7857 186.761L50.7981 186.773C55.1927 191.236 61.0206 194.006 67.2563 194.595C63.7886 199.705 62.2018 205.859 62.7668 212.009C63.3319 218.158 66.0137 223.92 70.3545 228.312L70.3668 228.325C73.0726 231.067 76.3401 233.19 79.9446 234.549C83.5492 235.907 87.4053 236.469 91.2477 236.196C95.0901 235.922 98.8276 234.819 102.203 232.964C105.579 231.108 108.513 228.543 110.803 225.446C122.374 231.793 135.338 235.172 148.535 235.281C161.732 235.39 174.75 232.225 186.425 226.07C188.686 229.171 191.59 231.747 194.938 233.622C198.286 235.498 202 236.629 205.825 236.938C209.65 237.247 213.496 236.727 217.102 235.413C220.708 234.1 223.988 232.023 226.717 229.326L226.73 229.314C230.739 225.358 233.393 220.235 234.313 214.679C235.232 209.122 234.37 203.418 231.849 198.381C231.375 197.436 230.844 196.52 230.259 195.638C236.502 195.129 242.366 192.434 246.817 188.027L246.829 188.015C249.931 184.945 252.233 181.162 253.534 176.996C254.835 172.829 255.095 168.408 254.291 164.118C253.487 159.828 251.644 155.801 248.923 152.389C246.202 148.976 242.685 146.283 238.682 144.545C241.643 142.227 244.081 139.31 245.835 135.983C247.588 132.657 248.618 128.997 248.857 125.244C249.096 121.492 248.539 117.731 247.221 114.209C245.904 110.687 243.856 107.483 241.213 104.809L241.201 104.796C238.33 101.886 234.828 99.6741 230.966 98.3326C227.103 96.9912 222.985 96.5557 218.927 97.0599L218.962 96.9453C220.466 92.2947 220.664 87.3203 219.535 82.5646C218.406 77.809 215.993 73.4547 212.558 69.9766L212.546 69.9641C207.711 65.0646 201.168 62.2252 194.287 62.0402C187.406 61.8552 180.72 64.3389 175.628 68.9715C174.472 64.3138 172.081 60.0542 168.707 56.6415L168.695 56.629C166.237 54.1319 163.309 52.145 160.081 50.7825C156.853 49.42 153.387 48.7087 149.883 48.6895L149.884 48.6885ZM149.463 55.381L149.841 55.3835C152.468 55.3974 155.067 55.9294 157.488 56.9489C159.909 57.9684 162.105 59.4554 163.951 61.3249C165.796 63.1943 167.255 65.4094 168.243 67.8434C169.232 70.2773 169.731 72.8823 169.711 75.5092C169.708 75.9705 169.7 76.2928 169.69 76.4856C169.672 76.8326 169.646 77.1548 169.617 77.4462C169.54 78.2154 169.732 78.9876 170.161 79.6309C170.589 80.2741 171.228 80.7483 171.968 80.9724C172.708 81.1965 173.503 81.1566 174.217 80.8595C174.93 80.5624 175.519 80.0265 175.881 79.3436C177.603 76.1066 180.176 73.4013 183.323 71.5197C187.27 69.1696 191.906 68.2492 196.452 68.9133C200.998 69.5774 205.177 71.7854 208.287 75.1666C211.397 78.5478 213.25 82.8962 213.533 87.4816C213.815 92.067 212.512 96.6101 209.841 100.348C209.414 100.946 209.197 101.669 209.222 102.403C209.247 103.138 209.514 103.843 209.981 104.411C210.448 104.978 211.089 105.376 211.805 105.542C212.521 105.709 213.271 105.634 213.941 105.331C215.249 104.736 216.619 104.285 218.025 103.986C219.444 103.686 220.892 103.54 222.343 103.551C227.08 103.581 231.652 105.292 235.247 108.378C238.841 111.463 241.224 115.725 241.97 120.403C242.717 125.081 241.78 129.872 239.325 133.923C236.871 137.975 233.058 141.024 228.566 142.528C227.813 142.753 227.165 143.235 226.733 143.891C226.301 144.547 226.114 145.333 226.205 146.113C226.296 146.893 226.658 147.615 227.228 148.155C227.799 148.694 228.541 149.014 229.325 149.061C234.524 149.385 239.392 151.724 242.893 155.581C246.394 159.438 248.252 164.509 248.072 169.715C247.892 174.921 245.688 179.852 241.929 183.458C238.171 187.065 233.153 189.062 227.944 189.027C227.056 189.024 226.169 188.963 225.289 188.845C224.414 188.721 223.548 188.538 222.697 188.299L222.694 188.31C221.943 188.104 221.145 188.167 220.436 188.489C219.728 188.81 219.154 189.369 218.814 190.069C218.475 190.769 218.391 191.566 218.577 192.321C218.763 193.077 219.208 193.743 219.834 194.205C222.38 196.087 224.446 198.543 225.864 201.374C227.79 205.238 228.416 209.621 227.647 213.87C226.878 218.118 224.757 222.005 221.598 224.949C218.44 227.893 214.415 229.737 210.123 230.205C205.831 230.674 201.502 229.743 197.783 227.55C194.723 225.73 192.201 223.131 190.474 220.018L190.467 220.022L190.434 219.966C189.991 219.2 189.262 218.642 188.408 218.413C187.553 218.185 186.643 218.305 185.877 218.747C174.546 225.307 161.663 228.707 148.571 228.594C135.478 228.48 122.656 224.858 111.44 218.103L111.349 218.05C110.574 217.619 109.661 217.513 108.808 217.755C107.956 217.997 107.234 218.568 106.803 219.342C105.048 222.469 102.489 225.07 99.3903 226.875C95.647 229.044 91.3016 229.941 87.0054 229.432C82.7092 228.923 78.6936 227.036 75.5604 224.052C72.4273 221.069 70.3453 217.151 69.6266 212.885C68.908 208.619 69.5912 204.235 71.5741 200.389C72.9885 197.654 75.0119 195.279 77.4885 193.449C78.1744 193.032 78.6874 192.382 78.9338 191.618C79.1802 190.854 79.1435 190.027 78.8305 189.288C78.5174 188.549 77.9489 187.947 77.2289 187.592C76.5088 187.238 75.6851 187.154 74.9084 187.357C74.0541 187.584 73.1858 187.756 72.309 187.869C71.4276 187.976 70.54 188.025 69.6521 188.016C64.4431 187.985 59.4516 185.924 55.7393 182.269C52.027 178.615 49.8867 173.657 49.7735 168.449C49.6604 163.241 51.5834 158.194 55.1336 154.382C58.6837 150.57 63.5809 148.293 68.7837 148.036C69.5605 148.002 70.3009 147.697 70.8769 147.175C71.453 146.652 71.8286 145.945 71.939 145.176C72.0493 144.406 71.8875 143.622 71.4813 142.959C71.0751 142.296 70.4502 141.795 69.7144 141.544C64.8801 139.872 60.8695 136.412 58.5065 131.876C56.1434 127.339 55.6073 122.07 57.0083 117.15C58.4093 112.23 61.641 108.034 66.0396 105.423C70.4381 102.811 75.6696 101.984 80.6595 103.109C82.0468 103.422 83.3963 103.884 84.6845 104.486C85.3491 104.81 86.1021 104.903 86.8256 104.753C87.5491 104.602 88.2023 104.216 88.683 103.655C89.1637 103.094 89.4448 102.389 89.4824 101.651C89.5199 100.913 89.3117 100.183 88.8904 99.576C86.2747 95.8032 85.0352 91.2459 85.3798 86.668C85.7243 82.09 87.6319 77.7696 90.7829 74.4308C93.9339 71.092 98.1368 68.9377 102.687 68.3289C107.237 67.7202 111.859 68.694 115.777 71.0871C118.868 72.9898 121.388 75.6929 123.068 78.9103C123.404 79.6177 123.977 80.1848 124.688 80.5122C125.399 80.8396 126.203 80.9064 126.958 80.7011C127.714 80.4958 128.373 80.0314 128.82 79.3891C129.268 78.7468 129.475 77.9675 129.406 77.1877C129.381 76.8973 129.359 76.5765 129.346 76.2262C129.338 76.0333 129.335 75.711 129.338 75.2497C129.351 72.6227 129.883 70.0242 130.903 67.6031C131.923 65.182 133.41 62.9858 135.279 61.1401C137.148 59.2945 139.364 57.8357 141.798 56.8473C144.232 55.8589 146.837 55.3603 149.464 55.38L149.463 55.381Z" fill="#231F20"/>
<path fill-rule="evenodd" clip-rule="evenodd" d="M82.7388 278.685C102.992 289.023 125.381 294.482 148.119 294.628C170.857 294.774 193.315 289.601 213.698 279.523C213.884 277.58 213.991 275.616 214.004 273.627C214.059 264.993 212.413 256.433 209.16 248.435C205.907 240.437 201.111 233.158 195.045 227.014C188.979 220.87 181.762 215.98 173.807 212.625C165.851 209.27 157.313 207.515 148.679 207.459C140.045 207.404 131.484 209.05 123.486 212.303C115.489 215.556 108.21 220.352 102.065 226.418C95.9213 232.484 91.032 239.701 87.6769 247.657C84.3217 255.612 82.5664 264.151 82.5111 272.785C82.4973 274.774 82.5785 276.739 82.7388 278.685Z" fill="#FFDE67"/>
<path fill-rule="evenodd" clip-rule="evenodd" d="M81.2159 281.656C101.926 292.259 124.832 297.86 148.098 298.009C171.363 298.158 194.34 292.851 215.184 282.514C215.725 282.246 216.183 281.835 216.509 281.327C216.835 280.818 217.017 280.231 217.036 279.627C217.129 278.628 217.202 277.669 217.249 276.758C217.31 275.587 217.345 274.541 217.351 273.648C217.428 255.35 210.243 237.768 197.372 224.76C184.502 211.752 166.997 204.381 148.698 204.264C130.4 204.147 112.802 211.293 99.7656 224.135C86.7296 236.977 79.32 254.465 79.1625 272.763C79.1568 273.656 79.1786 274.701 79.2243 275.874C79.2626 276.847 79.3283 277.876 79.4161 278.951C79.4614 279.517 79.6509 280.063 79.9664 280.535C80.2819 281.008 80.7131 281.392 81.2189 281.651L81.2159 281.656ZM115.24 287.238C105.108 284.769 95.2808 281.187 85.9372 276.556L85.8949 275.628C85.8649 274.836 85.8508 273.901 85.8578 272.806C85.8913 264.599 87.5434 256.48 90.7193 248.912C93.8952 241.345 98.5326 234.479 104.366 228.706C110.199 222.934 117.114 218.369 124.714 215.272C132.314 212.176 140.451 210.609 148.657 210.662C156.864 210.714 164.979 212.385 172.539 215.579C180.099 218.772 186.955 223.425 192.714 229.272C198.472 235.119 203.022 242.044 206.1 249.651C209.179 257.259 210.727 265.398 210.655 273.605C210.648 274.7 210.622 275.635 210.582 276.426L210.528 277.354C180.849 291.515 147.194 295.006 115.24 287.238Z" fill="#231F20"/>
<path d="M129.799 240.949C119.558 230.576 119.665 213.864 130.038 203.623C140.412 193.382 157.123 193.489 167.364 203.862C177.605 214.235 177.498 230.947 167.125 241.188C156.752 251.429 140.041 251.322 129.799 240.949Z" fill="#B09473"/>
<path fill-rule="evenodd" clip-rule="evenodd" d="M148.773 192.664C141.891 192.619 135.207 194.962 129.859 199.293C124.511 203.624 120.831 209.675 119.444 216.416C118.058 223.156 119.052 230.169 122.257 236.259C125.461 242.349 130.679 247.139 137.019 249.814C143.36 252.488 150.432 252.881 157.03 250.926C163.628 248.971 169.344 244.789 173.204 239.091C177.064 233.394 178.829 226.535 178.198 219.682C177.568 212.829 174.581 206.407 169.746 201.51C167.005 198.727 163.741 196.512 160.142 194.994C156.543 193.476 152.679 192.684 148.773 192.664ZM132.39 206.004C136.184 202.257 141.161 199.942 146.471 199.453C151.781 198.963 157.097 200.331 161.512 203.321C165.927 206.312 169.169 210.741 170.684 215.854C172.2 220.967 171.896 226.447 169.824 231.361C167.752 236.274 164.04 240.318 159.321 242.801C154.602 245.285 149.168 246.056 143.944 244.982C138.721 243.908 134.031 241.057 130.675 236.913C127.318 232.769 125.502 227.59 125.537 222.257C125.552 219.23 126.165 216.236 127.341 213.447C128.518 210.658 130.233 208.128 132.39 206.004Z" fill="#231F20"/>
<path fill-rule="evenodd" clip-rule="evenodd" d="M85.3407 158.119C82.0759 158.098 78.8782 159.046 76.152 160.843C73.4258 162.639 71.2936 165.203 70.0249 168.212C68.7562 171.22 68.4081 174.537 69.0245 177.743C69.641 180.949 71.1943 183.901 73.4881 186.224C75.7819 188.547 78.7131 190.138 81.9111 190.796C85.1091 191.453 88.4302 191.147 91.4544 189.917C94.4787 188.687 97.0703 186.588 98.9014 183.885C100.733 181.182 101.721 177.996 101.742 174.732C101.756 172.564 101.343 170.415 100.526 168.407C99.7093 166.399 98.5051 164.571 96.9821 163.028C95.4591 161.486 93.6471 160.258 91.6496 159.416C89.6522 158.574 87.5084 158.133 85.3407 158.119Z" fill="#B09473"/>
<path fill-rule="evenodd" clip-rule="evenodd" d="M85.3619 154.772C80.7679 154.743 76.3056 156.307 72.7354 159.198C69.1653 162.089 66.7081 166.129 65.7827 170.629C64.8573 175.129 65.5208 179.811 67.6602 183.876C69.7997 187.942 73.2826 191.14 77.5156 192.925C81.7486 194.711 86.4698 194.973 90.8746 193.668C95.2794 192.363 99.0954 189.571 101.672 185.767C104.249 181.964 105.427 177.384 105.006 172.81C104.586 168.235 102.591 163.947 99.3636 160.678C97.5338 158.82 95.3549 157.342 92.952 156.328C90.5492 155.315 87.9697 154.786 85.3619 154.772ZM75.9884 165.262C78.1553 163.121 80.9972 161.799 84.03 161.519C87.0627 161.239 90.0987 162.02 92.6205 163.727C95.1423 165.435 96.9939 167.965 97.8597 170.885C98.7256 173.805 98.5522 176.934 97.369 179.741C96.1859 182.547 94.0662 184.857 91.3712 186.275C88.6761 187.694 85.5726 188.134 82.5892 187.521C79.6059 186.908 76.9275 185.28 75.0104 182.913C73.0933 180.547 72.0561 177.588 72.0756 174.543C72.0844 172.814 72.4347 171.105 73.1062 169.512C73.7777 167.919 74.757 166.475 75.9884 165.262Z" fill="#231F20"/>
<path fill-rule="evenodd" clip-rule="evenodd" d="M212.64 158.935C209.375 158.914 206.177 159.862 203.451 161.658C200.725 163.454 198.593 166.019 197.324 169.027C196.055 172.035 195.707 175.352 196.323 178.559C196.94 181.765 198.493 184.716 200.787 187.039C203.081 189.363 206.012 190.954 209.21 191.611C212.408 192.269 215.729 191.963 218.753 190.733C221.777 189.503 224.369 187.403 226.2 184.7C228.031 181.997 229.02 178.812 229.041 175.547C229.055 173.38 228.641 171.23 227.825 169.222C227.008 167.214 225.804 165.387 224.281 163.844C222.758 162.302 220.946 161.074 218.949 160.232C216.951 159.389 214.807 158.949 212.64 158.935Z" fill="#B09473"/>
<path fill-rule="evenodd" clip-rule="evenodd" d="M212.661 155.587C208.067 155.557 203.605 157.121 200.034 160.013C196.464 162.904 194.007 166.944 193.082 171.444C192.156 175.944 192.819 180.625 194.959 184.691C197.098 188.757 200.581 191.955 204.814 193.74C209.047 195.526 213.768 195.788 218.173 194.483C222.578 193.178 226.394 190.385 228.971 186.582C231.548 182.779 232.726 178.199 232.305 173.624C231.884 169.05 229.89 164.762 226.662 161.493C224.833 159.635 222.654 158.157 220.251 157.143C217.848 156.13 215.269 155.601 212.661 155.587ZM203.288 166.076C205.454 163.936 208.296 162.613 211.329 162.334C214.362 162.054 217.398 162.834 219.92 164.542C222.441 166.25 224.293 168.779 225.159 171.699C226.025 174.619 225.851 177.749 224.668 180.556C223.485 183.362 221.365 185.671 218.67 187.09C215.975 188.509 212.872 188.949 209.888 188.336C206.905 187.723 204.227 186.095 202.31 183.728C200.392 181.361 199.355 178.403 199.375 175.358C199.383 173.629 199.734 171.92 200.405 170.327C201.077 168.734 202.056 167.29 203.288 166.076Z" fill="#231F20"/>
<path d="M148.578 223.03C112.527 222.799 83.4893 193.387 83.7202 157.336C83.9511 121.286 113.363 92.2478 149.414 92.4787C185.465 92.7096 214.503 122.122 214.272 158.173C214.041 194.223 184.629 223.261 148.578 223.03Z" fill="#B09473"/>
<path fill-rule="evenodd" clip-rule="evenodd" d="M149.436 89.1319C133.558 89.0299 118.137 94.4363 105.799 104.43C93.4613 114.424 84.9703 128.386 81.773 143.938C78.5757 159.491 80.8699 175.67 88.2647 189.721C95.6595 203.771 107.697 214.823 122.327 220.992C136.957 227.162 153.273 228.068 168.496 223.557C183.719 219.045 196.907 209.394 205.812 196.249C214.717 183.104 218.789 167.278 217.333 151.467C215.878 135.656 208.985 120.839 197.83 109.541C191.506 103.119 183.974 98.0098 175.669 94.5073C167.364 91.0048 158.449 89.178 149.436 89.1319ZM105.486 113.685C115.682 103.618 129.053 97.399 143.32 96.086C157.588 94.7729 171.869 98.4475 183.731 106.484C195.592 114.52 204.301 126.42 208.372 140.157C212.443 153.894 211.626 168.618 206.058 181.82C200.491 195.021 190.518 205.884 177.839 212.557C165.16 219.23 150.56 221.3 136.526 218.415C122.491 215.53 109.892 207.868 100.873 196.735C91.8551 185.602 86.9761 171.686 87.0678 157.358C87.1093 149.224 88.7579 141.179 91.9188 133.683C95.0797 126.188 99.6906 119.392 105.486 113.685Z" fill="#231F20"/>
<path fill-rule="evenodd" clip-rule="evenodd" d="M187.675 168.089C186.916 168.546 186.369 169.285 186.156 170.144C185.942 171.004 186.078 171.913 186.534 172.672C186.991 173.431 187.73 173.977 188.59 174.191C189.449 174.405 190.358 174.269 191.117 173.812L218.527 157.346C218.903 157.12 219.23 156.822 219.491 156.469C219.752 156.116 219.94 155.716 220.046 155.29C220.152 154.865 220.173 154.423 220.108 153.989C220.043 153.555 219.893 153.139 219.667 152.763C219.441 152.387 219.143 152.06 218.791 151.799C218.438 151.538 218.038 151.35 217.612 151.244C217.187 151.138 216.744 151.117 216.311 151.182C215.877 151.247 215.46 151.397 215.085 151.623L187.675 168.089Z" fill="#231F20"/>
<path fill-rule="evenodd" clip-rule="evenodd" d="M106.672 173.272C107.425 173.738 108.333 173.886 109.195 173.683C110.057 173.48 110.803 172.943 111.269 172.19C111.735 171.437 111.883 170.53 111.68 169.668C111.478 168.806 110.941 168.059 110.188 167.593L82.991 150.777C82.238 150.311 81.3307 150.163 80.4686 150.366C79.6065 150.569 78.8603 151.106 78.3942 151.859C77.9281 152.612 77.7801 153.519 77.983 154.381C78.1858 155.243 78.7228 155.989 79.4758 156.455L106.672 173.272Z" fill="#231F20"/>
<path fill-rule="evenodd" clip-rule="evenodd" d="M149.858 84.367C134.865 84.271 127.088 88.3016 112.698 91.9758C100.816 95.0093 90.4311 101.776 90.3526 114.037C90.3225 118.79 91.8186 123.428 94.6208 127.267C97.4231 131.107 101.384 133.946 105.92 135.367C110.456 136.788 115.328 136.716 119.82 135.161C124.312 133.606 128.187 130.651 130.874 126.73C132.889 129.752 135.614 132.233 138.811 133.957C142.007 135.681 145.578 136.595 149.21 136.618C152.842 136.641 156.424 135.773 159.642 134.09C162.861 132.408 165.618 129.961 167.671 126.965C170.307 130.921 174.144 133.926 178.615 135.538C183.087 137.15 187.958 137.285 192.512 135.922C197.066 134.56 201.063 131.772 203.914 127.968C206.765 124.165 208.321 119.546 208.351 114.793C208.43 102.531 195.782 95.4639 186.291 92.4478C174.191 88.6043 162.556 84.4484 149.858 84.367Z" fill="#554846"/>
<path fill-rule="evenodd" clip-rule="evenodd" d="M94.3268 119.068C94.1 118.213 93.5429 117.483 92.7782 117.04C92.0135 116.596 91.1038 116.474 90.2492 116.7C89.3946 116.927 88.6651 117.484 88.2211 118.249C87.7772 119.014 87.6553 119.923 87.8821 120.778C89.0405 125.142 91.336 129.12 94.5343 132.306C97.7326 135.493 101.719 137.773 106.087 138.916C110.455 140.058 115.047 140.021 119.396 138.808C123.745 137.595 127.694 135.25 130.84 132.012C133.204 134.508 136.047 136.501 139.201 137.869C142.354 139.238 145.752 139.955 149.189 139.976C152.626 139.998 156.033 139.325 159.203 137.996C162.373 136.667 165.242 134.711 167.637 132.245C170.745 135.517 174.663 137.906 178.995 139.171C183.326 140.436 187.915 140.53 192.294 139.445C196.674 138.36 200.688 136.133 203.927 132.993C207.167 129.852 209.517 125.909 210.737 121.565C210.855 121.143 210.888 120.702 210.835 120.268C210.783 119.833 210.645 119.413 210.43 119.032C210.215 118.65 209.927 118.315 209.583 118.045C209.238 117.775 208.844 117.575 208.422 117.457C208 117.34 207.56 117.306 207.125 117.359C206.69 117.411 206.27 117.549 205.889 117.764C205.508 117.979 205.172 118.267 204.902 118.611C204.632 118.956 204.432 119.35 204.315 119.772C203.332 123.237 201.379 126.349 198.686 128.741C195.993 131.133 192.672 132.704 189.115 133.271C185.558 133.837 181.913 133.374 178.611 131.937C175.308 130.5 172.485 128.148 170.475 125.159C170.178 124.698 169.771 124.317 169.291 124.05C168.81 123.784 168.272 123.64 167.722 123.632C167.173 123.623 166.63 123.751 166.142 124.003C165.654 124.255 165.236 124.624 164.925 125.076C163.17 127.625 160.818 129.705 158.075 131.137C153.956 133.282 149.191 133.834 144.691 132.688C140.19 131.542 136.27 128.778 133.678 124.925C133.38 124.463 132.973 124.082 132.493 123.816C132.013 123.549 131.474 123.405 130.925 123.397C130.375 123.389 129.833 123.517 129.345 123.769C128.857 124.021 128.438 124.389 128.127 124.842C126.372 127.39 124.021 129.471 121.278 130.903C118.773 132.208 116.007 132.934 113.183 133.028C110.36 133.122 107.552 132.581 104.966 131.445C102.379 130.309 100.081 128.608 98.2395 126.466C96.3983 124.323 95.061 121.795 94.3268 119.068Z" fill="#231F20"/>
<path fill-rule="evenodd" clip-rule="evenodd" d="M141.727 166.646C130.894 159.376 118.066 155.66 105.025 156.014C98.5992 156.316 96.0513 159.471 96.8117 167.535C97.9557 175.336 101.447 182.605 106.821 188.374C110.841 192.203 116.066 194.517 121.603 194.92C127.139 195.323 132.644 193.79 137.176 190.583C140.557 187.789 143.274 184.279 145.132 180.306C145.585 179.757 146.156 179.316 146.801 179.015C147.446 178.713 148.15 178.559 148.863 178.564C149.575 178.568 150.277 178.731 150.918 179.041C151.56 179.351 152.124 179.799 152.571 180.354C154.377 184.351 157.048 187.896 160.393 190.733C164.883 193.997 170.368 195.601 175.91 195.269C181.451 194.937 186.706 192.69 190.774 188.913C196.222 183.213 199.806 175.99 201.05 168.204C201.914 160.149 199.406 156.963 192.985 156.578C179.95 156.057 167.076 159.608 156.151 166.739C148.865 171.526 148.365 171.13 141.727 166.646Z" fill="#231F20"/>
</svg>
