<svg width="512" height="392" viewBox="0 0 512 392" fill="none" xmlns="http://www.w3.org/2000/svg">
<path d="M479.947 391.677H32.053C14.35 391.677 0 377.327 0 359.625V32.053C0 14.351 14.35 0 32.053 0H479.948C497.65 0 512 14.351 512 32.053V359.625C512 377.327 497.65 391.677 479.947 391.677Z" fill="#F3CA40"/>
<path d="M134.031 294.948H53.9151C39.3821 294.948 27.6011 283.167 27.6011 268.634V72.1121C27.6011 57.5791 39.3821 45.7981 53.9151 45.7981H134.031C148.564 45.7981 160.345 57.5791 160.345 72.1121V268.634C160.345 283.167 148.564 294.948 134.031 294.948ZM322.372 268.635V72.1121C322.372 57.5791 310.591 45.7981 296.058 45.7981H215.942C201.409 45.7981 189.628 57.5791 189.628 72.1121V268.634C189.628 283.167 201.409 294.948 215.942 294.948H296.058C310.591 294.948 322.372 283.167 322.372 268.635ZM484.398 268.635V72.1121C484.398 57.5791 472.617 45.7981 458.084 45.7981H377.968C363.435 45.7981 351.654 57.5791 351.654 72.1121V268.634C351.654 283.167 363.435 294.948 377.968 294.948H458.084C472.617 294.948 484.398 283.167 484.398 268.635Z" fill="#D5DEE4"/>
<path d="M132.872 45.7991C128.581 63.3001 112.797 76.2871 93.973 76.2871C75.149 76.2871 59.366 63.3001 55.074 45.7991H132.872ZM217.101 45.7991C221.392 63.3001 237.176 76.2871 256 76.2871C274.824 76.2871 290.607 63.3001 294.899 45.7991H217.101ZM379.128 45.7991C383.419 63.3001 399.203 76.2871 418.027 76.2871C436.851 76.2871 452.634 63.3001 456.926 45.7991H379.128Z" fill="#D17BFF"/>
<path d="M130.454 288.081V295.147H57.4919V288.081C57.4919 278.498 65.2599 270.73 74.8429 270.73H113.102C122.686 270.73 130.454 278.498 130.454 288.081ZM275.129 270.73H236.87C227.287 270.73 219.519 278.498 219.519 288.081V295.147H292.481V288.081C292.481 278.498 284.712 270.73 275.129 270.73ZM437.156 270.73H398.897C389.314 270.73 381.546 278.498 381.546 288.081V295.147H454.508V288.081C454.508 278.498 446.739 270.73 437.156 270.73Z" fill="#F2A74E"/>
<path d="M160.345 255.318H27.6021V85.4291H160.345V255.318ZM322.372 85.4291H189.628V255.317H322.371V85.4291H322.372ZM484.398 85.4291H351.655V255.317H484.398V85.4291Z" fill="#F9F9F7"/>
<path d="M308.589 365.368H41.384C33.772 365.368 27.6021 359.197 27.6021 351.586V340.241C27.6021 332.629 33.773 326.459 41.384 326.459H308.59C316.202 326.459 322.372 332.63 322.372 340.241V351.586C322.372 359.197 316.201 365.368 308.589 365.368Z" fill="#7270FF"/>
<path d="M470.616 365.368H365.64C358.028 365.368 351.858 359.197 351.858 351.586V340.241C351.858 332.629 358.029 326.459 365.64 326.459H470.616C478.228 326.459 484.398 332.63 484.398 340.241V351.586C484.398 359.197 478.228 365.368 470.616 365.368Z" fill="#FFAA5A"/>
<path d="M63.4431 221.631L101.631 141.408C104.156 136.103 100.288 129.977 94.4121 129.977H58.9801C57.9302 129.977 56.8905 129.77 55.9204 129.369C54.9503 128.967 54.0689 128.378 53.3265 127.636C52.5841 126.893 51.9952 126.012 51.5934 125.042C51.1917 124.072 50.985 123.032 50.9851 121.982V115.832C50.985 114.782 51.1917 113.742 51.5934 112.772C51.9952 111.802 52.5841 110.921 53.3265 110.178C54.0689 109.436 54.9503 108.847 55.9204 108.445C56.8905 108.044 57.9302 107.837 58.9801 107.837H128.967C130.017 107.837 131.057 108.044 132.027 108.445C132.997 108.847 133.878 109.436 134.621 110.178C135.363 110.921 135.952 111.802 136.354 112.772C136.756 113.742 136.962 114.782 136.962 115.832V126.061C136.962 127.183 136.726 128.292 136.269 129.317L90.4041 232.17C89.6076 233.956 88.1844 235.388 86.4037 236.195C84.623 237.002 82.6081 237.13 80.7401 236.552L68.3001 232.706C63.6451 231.266 61.3491 226.032 63.4431 221.631ZM225.47 221.631L263.658 141.408C266.183 136.103 262.315 129.977 256.439 129.977H221.007C219.957 129.977 218.917 129.77 217.947 129.369C216.977 128.967 216.096 128.378 215.354 127.636C214.611 126.893 214.022 126.012 213.62 125.042C213.219 124.072 213.012 123.032 213.012 121.982V115.832C213.012 114.782 213.219 113.742 213.62 112.772C214.022 111.802 214.611 110.921 215.354 110.178C216.096 109.436 216.977 108.847 217.947 108.445C218.917 108.044 219.957 107.837 221.007 107.837H290.994C292.044 107.837 293.084 108.044 294.054 108.445C295.024 108.847 295.905 109.436 296.648 110.178C297.39 110.921 297.979 111.802 298.381 112.772C298.783 113.742 298.989 114.782 298.989 115.832V126.061C298.989 127.183 298.753 128.292 298.296 129.317L252.432 232.171C251.636 233.957 250.212 235.389 248.432 236.196C246.651 237.004 244.636 237.13 242.768 236.553L230.328 232.707C225.671 231.266 223.376 226.032 225.47 221.631ZM387.497 221.631L425.685 141.408C428.21 136.103 424.342 129.977 418.466 129.977H383.034C381.984 129.977 380.944 129.77 379.974 129.369C379.004 128.967 378.123 128.378 377.381 127.636C376.638 126.893 376.049 126.012 375.647 125.042C375.246 124.072 375.039 123.032 375.039 121.982V115.832C375.039 114.782 375.246 113.742 375.647 112.772C376.049 111.802 376.638 110.921 377.381 110.178C378.123 109.436 379.004 108.847 379.974 108.445C380.944 108.044 381.984 107.837 383.034 107.837H453.021C454.071 107.837 455.111 108.044 456.081 108.445C457.051 108.847 457.932 109.436 458.675 110.178C459.417 110.921 460.006 111.802 460.408 112.772C460.81 113.742 461.016 114.782 461.016 115.832V126.061C461.016 127.183 460.78 128.292 460.323 129.317L414.459 232.171C413.663 233.957 412.239 235.389 410.459 236.196C408.678 237.004 406.663 237.13 404.795 236.553L392.355 232.707C387.698 231.266 385.402 226.032 387.497 221.631Z" fill="#FF785A"/>
</svg>
