<svg width="530" height="530" viewBox="0 0 530 530" fill="none" xmlns="http://www.w3.org/2000/svg">
<path d="M530 265C530 411.355 411.355 530 265 530C118.645 530 0 411.355 0 265C0 118.645 118.645 0 265 0C411.355 0 530 118.645 530 265Z" fill="#E2C044"/>
<path d="M505 266C505 398.548 397.548 506 265 506C132.452 506 25 398.548 25 266C25 133.452 132.452 26 265 26C397.548 26 505 133.452 505 266Z" fill="#7270FF"/>
<path d="M297.016 230.644L304.781 69L167 301.145L232.984 299.356L225.219 461L363 228.855L297.016 230.644Z" fill="#DFB92F"/>
<path fill-rule="evenodd" clip-rule="evenodd" d="M304.781 69L167 301.145L232.984 299.356L225.219 461L363 228.855L297.016 230.644L304.781 69ZM360.277 230.453L295.411 232.211L302.961 75.0572L169.723 299.547L234.589 297.789L227.039 454.943L360.277 230.453Z" fill="#E2C044"/>
</svg>
